<?xml version="1.0" standalone="no"?>
<!DOCTYPE svg PUBLIC "-//W3C//DTD SVG 20010904//EN"
 "http://www.w3.org/TR/2001/REC-SVG-20010904/DTD/svg10.dtd">
<svg version="1.0" xmlns="http://www.w3.org/2000/svg"
 width="1114.000000pt" height="1114.000000pt" viewBox="0 0 1114.000000 1114.000000"
 preserveAspectRatio="xMidYMid meet">
<metadata>
Created by potrace 1.14, written by Peter Selinger 2001-2017
</metadata>
<g transform="translate(0.000000,1114.000000) scale(0.100000,-0.100000)"
fill="#000000" stroke="none">
<path d="M4702 10649 c-36 -14 -160 -119 -198 -169 -43 -54 -121 -211 -130
-260 -5 -29 0 -23 31 35 52 98 137 226 176 267 49 50 114 90 140 86 28 -4 122
-130 179 -241 37 -73 77 -184 68 -192 -2 -2 -30 46 -62 108 -66 127 -128 221
-168 250 -23 18 -30 18 -57 7 -66 -27 -140 -134 -245 -351 -109 -227 -202
-493 -242 -694 -4 -22 -8 -115 -9 -207 0 -92 -4 -170 -8 -175 -20 -19 -28 30
-24 147 5 133 20 242 67 473 6 32 9 64 6 70 -2 7 -5 2 -5 -10 -1 -12 -5 -25
-11 -28 -5 -3 -10 -15 -10 -26 0 -10 -4 -27 -9 -37 -26 -49 -71 -358 -71 -491
0 -53 -4 -101 -8 -108 -4 -6 -20 -15 -36 -19 l-29 -7 7 -80 c4 -44 11 -89 17
-99 8 -16 7 -28 -7 -53 -15 -28 -16 -36 -5 -49 17 -20 31 -20 67 -1 40 21 54
19 54 -7 0 -19 14 -8 77 57 56 57 79 75 81 63 2 -9 -20 -69 -48 -133 -46 -106
-140 -375 -140 -400 0 -6 -11 -27 -25 -47 -30 -44 -31 -52 -6 -38 21 11 61 14
61 4 0 -4 -16 -28 -36 -55 -26 -36 -34 -56 -30 -72 3 -14 -1 -33 -10 -45 -14
-21 -14 -22 13 -22 17 0 33 8 40 19 7 11 28 25 48 31 32 11 36 15 30 37 -4 19
0 32 16 49 12 13 26 24 31 24 13 0 128 79 128 88 0 4 12 9 27 10 15 1 44 13
64 26 25 17 40 21 47 14 6 -6 12 -6 17 3 5 7 4 10 -3 5 -6 -3 -13 -2 -17 4 -4
6 -13 5 -26 -3 -16 -10 -21 -9 -28 1 -4 8 -12 14 -17 15 -5 1 -9 7 -10 12 0 6
-4 17 -8 26 -10 22 8 85 23 81 7 -1 10 2 6 8 -3 5 -1 10 5 10 6 0 9 4 5 9 -10
17 39 41 84 41 30 0 48 -6 58 -17 10 -12 12 -13 8 -3 -4 8 1 6 9 -4 9 -11 16
-16 16 -10 0 14 20 -19 20 -35 0 -7 -25 -38 -55 -68 -66 -65 -65 -85 4 -81 30
2 48 8 48 15 0 9 -4 10 -14 2 -8 -7 -13 -8 -13 -1 0 5 17 17 38 25 20 9 30 16
22 16 -10 1 -11 4 -3 12 12 12 53 3 53 -12 0 -15 20 -32 55 -47 17 -8 53 -31
80 -52 103 -78 178 -98 295 -79 154 25 203 8 231 -83 7 -21 15 -38 18 -38 3 0
17 17 31 37 67 99 243 233 306 233 26 0 131 -60 224 -129 87 -65 100 -71 100
-45 0 13 7 15 30 10 19 -3 29 -2 25 4 -8 12 38 24 62 15 10 -3 32 -27 48 -53
35 -55 69 -71 56 -25 -5 15 -12 35 -15 44 -6 14 3 16 71 15 71 -1 85 2 157 37
46 22 96 55 117 77 l37 39 99 -85 c54 -47 100 -94 103 -105 6 -23 100 -120
110 -114 8 5 6 55 -5 150 -4 33 -8 76 -10 95 -5 52 -33 247 -45 309 -5 29 -10
63 -10 75 1 21 1 21 20 -2 28 -34 84 -216 124 -402 34 -156 39 -213 22 -252
-5 -11 5 -39 31 -84 66 -115 103 -188 103 -204 -1 -8 -7 -24 -15 -34 -8 -11
-15 -30 -15 -42 0 -13 -11 -54 -25 -92 -14 -38 -25 -73 -25 -76 0 -41 107 167
117 227 4 26 -1 40 -20 63 -59 71 -94 139 -99 194 -4 43 -2 57 11 66 14 11 14
14 -1 31 -20 22 -27 50 -74 278 -23 117 -37 213 -38 275 -2 52 -6 102 -10 111
-4 9 2 44 13 79 27 82 27 85 -13 108 l-33 20 -6 323 c-5 278 -22 544 -41 654
-3 17 -8 46 -11 65 -2 19 -9 55 -15 80 -6 25 -15 72 -20 105 -20 137 -106 294
-183 337 -27 14 -90 -32 -144 -106 -56 -76 -56 -103 1 -34 51 63 94 98 117 98
23 0 76 -63 127 -152 44 -78 82 -205 81 -272 0 -48 -5 -39 -39 74 -28 91 -116
257 -147 278 -22 13 -26 12 -63 -13 -51 -35 -121 -120 -172 -210 -22 -38 -57
-97 -78 -130 -76 -124 -171 -303 -191 -361 -11 -32 -24 -62 -28 -67 -7 -7 -76
17 -98 35 -9 7 5 31 55 91 36 45 82 99 102 120 35 38 124 186 116 194 -2 2
-12 -8 -23 -22 -81 -117 -284 -332 -320 -341 -34 -9 -28 -20 25 -50 26 -15 80
-48 120 -73 40 -25 86 -54 103 -63 27 -14 77 -68 53 -56 -25 12 -143 72 -174
88 -19 10 -38 16 -42 14 -3 -2 -8 1 -10 6 -2 6 -16 12 -31 14 -15 1 -30 6 -34
9 -3 4 -28 7 -55 7 -47 0 -53 -3 -107 -57 -70 -71 -111 -142 -118 -208 -9 -75
-16 -84 -46 -52 -13 15 -31 41 -39 57 -48 99 -281 310 -342 310 -26 0 -98 -39
-111 -60 -3 -5 -17 -10 -31 -10 -17 0 -24 6 -24 19 0 23 124 87 195 100 28 5
113 12 190 16 77 4 149 11 160 15 18 7 18 8 -8 15 -32 8 -303 -9 -407 -26
l-71 -12 -30 29 c-40 38 -94 131 -116 197 -34 107 -112 315 -147 390 -57 125
-178 299 -205 296 -3 0 -16 -4 -29 -10z m28 -472 c85 -129 170 -406 175 -568
1 -41 7 -84 13 -96 13 -23 -1 -43 -28 -43 -9 0 -22 -11 -28 -25 -7 -14 -23
-30 -37 -35 -63 -24 -258 -169 -385 -287 -19 -18 -40 -33 -47 -33 -17 0 -47
42 -68 95 -17 45 -17 48 0 86 10 21 22 39 26 39 17 0 19 42 5 91 -20 66 -21
210 -2 283 53 204 175 432 281 525 19 17 41 28 48 25 7 -2 28 -28 47 -57z
m2053 -85 c70 -133 91 -227 90 -407 0 -103 -5 -156 -18 -200 -22 -77 -39 -95
-85 -95 -37 0 -44 8 -75 95 -6 19 -7 19 -23 -4 -10 -13 -29 -36 -44 -52 -33
-36 -26 -37 15 -3 34 29 41 25 75 -39 16 -30 19 -51 15 -90 -5 -48 -3 -54 23
-73 16 -12 37 -39 48 -60 10 -22 23 -47 28 -57 27 -52 -17 -18 -140 109 -75
78 -152 149 -169 158 -31 16 -39 27 -33 51 8 34 5 97 -6 105 -13 12 -76 16
-91 7 -6 -4 -17 1 -24 9 -12 15 -10 16 18 10 32 -7 45 2 49 34 8 62 32 126 99
265 107 220 171 320 200 309 7 -3 29 -36 48 -72z m-1656 -282 c43 -64 49 -94
29 -125 -30 -45 -38 -33 -65 103 -19 91 -11 95 36 22z m1163 -162 c0 -21 -3
-29 -10 -22 -5 5 -7 19 -4 32 9 31 14 27 14 -10z m-1000 -51 c-8 -9 -9 -7 -4
8 7 18 6 19 -11 5 -17 -14 -17 -14 -4 7 12 19 15 20 22 7 6 -10 5 -20 -3 -27z
m94 21 c-5 -8 0 -7 11 2 14 11 19 12 22 3 3 -7 9 -13 15 -13 14 0 144 -130
141 -141 -2 -4 5 -5 15 -2 9 3 14 3 11 -1 -4 -4 6 -20 22 -37 44 -47 60 -84
45 -105 -14 -19 -33 -3 -20 18 4 6 3 8 -4 4 -13 -8 -84 65 -77 81 2 7 -2 10
-9 7 -6 -2 -28 12 -48 33 -20 21 -48 47 -62 58 -14 11 -24 25 -22 30 2 6 -5
12 -16 12 -11 1 -26 7 -33 13 -14 12 -9 50 7 50 5 0 6 -6 2 -12z m607 -51 c-6
-8 -8 -16 -5 -20 3 -3 -1 -4 -10 -3 -17 2 -23 21 -7 21 5 0 13 3 17 8 13 12
17 8 5 -6z m-550 -99 c9 -10 19 -15 22 -12 3 3 3 -4 0 -15 -3 -12 -8 -19 -11
-17 -3 3 -15 -8 -27 -24 -12 -16 -24 -28 -26 -25 -3 2 -5 -7 -5 -20 0 -14 4
-25 9 -25 4 0 6 -4 2 -9 -3 -5 -1 -12 5 -16 6 -4 7 -12 4 -18 -4 -7 -4 -9 1
-5 4 4 14 3 21 -3 30 -25 70 -21 104 11 33 31 54 37 65 20 17 -27 10 -48 -28
-85 -22 -22 -37 -33 -32 -25 6 11 3 10 -12 -2 -28 -25 -90 -23 -128 4 -40 27
-79 83 -69 99 4 8 3 9 -4 5 -8 -5 -12 3 -12 24 0 17 3 29 8 27 4 -3 7 8 8 24
1 29 60 107 79 105 6 -1 17 -9 26 -18z m1372 -133 c-3 -9 -8 -14 -10 -11 -3 3
-2 9 2 15 9 16 15 13 8 -4z m-1629 -87 c-6 -10 -5 -10 7 -1 30 24 165 -6 141
-32 -4 -5 -1 -5 6 -1 7 5 11 15 7 25 -4 11 -3 13 5 5 16 -16 22 -56 7 -48 -7
4 -2 -3 11 -15 12 -12 23 -29 24 -39 5 -58 3 -82 -9 -86 -7 -3 -10 -11 -7 -19
14 -37 -80 -88 -121 -66 -5 3 -26 5 -45 5 -27 -1 -41 6 -67 35 -34 38 -56 83
-45 94 3 3 5 21 4 39 -3 28 4 41 38 75 42 41 58 52 44 29z m638 -35 c6 -7 5
-14 -3 -19 -7 -4 -9 -3 -5 4 3 6 2 13 -4 17 -5 3 -9 16 -9 28 1 20 2 21 6 2 3
-11 9 -25 15 -32z m-872 -132 c0 -5 5 -13 12 -17 7 -5 8 -3 3 6 -6 10 -4 11 6
4 21 -13 39 -14 36 -1 -4 21 36 12 52 -13 9 -13 11 -21 5 -17 -11 6 -29 -19
-26 -35 1 -5 -4 -8 -10 -8 -7 0 -2 -6 12 -13 16 -8 25 -21 24 -35 0 -17 2 -19
13 -11 7 7 13 7 13 2 0 -5 12 -16 26 -23 20 -11 24 -19 19 -40 -5 -22 -3 -21
15 8 11 18 38 41 60 51 22 10 39 20 37 22 -1 2 2 1 8 -3 5 -5 17 -8 26 -8 9 0
44 -18 77 -41 68 -44 121 -117 142 -195 13 -45 13 -47 -16 -73 -38 -36 -67
-51 -97 -51 -28 0 -142 71 -175 109 -27 31 -77 123 -74 134 2 5 -3 7 -10 4 -7
-2 -12 -11 -10 -18 3 -12 -15 2 -94 77 -13 12 -20 25 -17 28 4 3 1 7 -5 7 -7
1 -18 2 -24 3 -7 1 -18 -1 -24 -6 -18 -13 -47 16 -46 48 0 16 -5 38 -12 49
-16 29 -14 47 9 71 16 16 23 18 33 8 6 -7 12 -17 12 -23z m-817 -70 c14 -68
19 -159 10 -164 -24 -15 -44 21 -59 107 -12 71 -13 91 -3 97 20 12 46 -8 52
-40z m695 -20 c7 -1 10 -5 7 -11 -3 -5 -2 -10 3 -10 6 0 13 -8 16 -17 4 -10 4
-14 0 -11 -3 4 -18 -4 -32 -18 -15 -13 -29 -24 -33 -24 -3 0 -11 -12 -18 -26
-16 -35 -6 -64 19 -58 11 2 29 6 39 8 11 3 29 10 41 16 12 7 31 10 41 7 10 -3
21 -2 24 3 8 13 54 -2 79 -26 24 -25 40 -81 24 -90 -5 -3 -6 -9 -3 -14 3 -4
-2 -13 -10 -20 -8 -7 -12 -16 -9 -21 3 -5 -2 -12 -10 -15 -9 -3 -13 -11 -9
-17 3 -5 1 -7 -4 -4 -6 4 -16 0 -23 -9 -7 -8 -20 -12 -28 -9 -12 4 -12 3 -3
-9 9 -11 7 -15 -9 -19 -13 -3 -18 -1 -14 6 5 8 3 8 -6 0 -11 -10 -17 -8 -32
10 -11 12 -15 23 -9 25 6 2 12 2 13 1 4 -4 43 28 70 56 28 29 20 80 -13 81
-13 0 -30 -4 -36 -9 -7 -5 -13 -6 -13 -2 0 4 -11 0 -24 -8 -13 -9 -47 -17 -75
-18 -44 -2 -56 1 -78 23 -35 35 -47 110 -22 129 10 7 16 16 13 21 -3 4 0 8 6
8 6 0 8 6 4 13 -4 6 -4 9 1 5 11 -11 36 12 28 25 -3 6 -1 7 5 3 7 -4 12 -2 12
3 0 6 7 11 16 11 8 0 13 4 10 9 -4 5 2 8 11 6 10 -2 24 -4 31 -4z m1499 -76
c7 -2 19 -20 27 -40 14 -32 13 -40 -5 -97 -28 -86 -84 -175 -121 -194 -40 -21
-160 -16 -183 7 -15 14 -14 22 1 83 25 102 101 202 179 237 35 16 59 17 102 4z
m-1367 -495 c0 -67 -10 -77 -28 -27 -15 42 -15 60 0 75 22 22 28 12 28 -48z
m304 -2 c11 -41 6 -75 -13 -99 -26 -32 -35 -20 -22 28 6 21 11 50 11 66 0 33
15 36 24 5z m1298 -35 c-27 -86 -49 -86 -25 0 11 38 20 54 26 48 7 -7 6 -23
-1 -48z m-202 12 c0 -8 -7 -15 -15 -15 -8 0 -15 7 -15 15 0 8 7 15 15 15 8 0
15 -7 15 -15z m-1936 -21 c3 -8 2 -13 -3 -10 -5 3 -14 0 -20 -8 -7 -8 -20 -13
-29 -11 -9 1 -23 -2 -31 -8 -17 -14 -43 -18 -35 -6 3 5 9 7 14 4 5 -3 12 -1
15 5 4 6 1 9 -7 8 -7 -2 -12 4 -10 12 2 8 0 11 -5 7 -4 -5 -8 -12 -8 -15 0 -4
-4 -12 -8 -19 -4 -6 -3 -14 3 -18 6 -4 8 -11 4 -16 -4 -6 -11 -6 -20 2 -8 6
-17 9 -21 5 -3 -3 -1 -6 5 -6 7 0 12 -4 12 -10 0 -5 -7 -10 -15 -10 -50 0 33
103 85 105 17 1 33 4 36 8 9 9 32 -3 38 -19z m-244 -23 c-16 -30 -12 -36 10
-16 11 10 21 15 21 12 1 -4 2 -13 3 -19 1 -7 7 -12 12 -11 6 1 11 -4 11 -12 0
-8 -4 -12 -9 -9 -5 3 -6 -6 -2 -19 5 -22 3 -25 -15 -20 -12 3 -21 12 -21 21 0
8 -7 23 -16 33 -12 14 -13 22 -4 38 6 12 13 21 16 21 2 0 0 -9 -6 -19z"/>
<path d="M4565 9563 c-54 -85 -60 -92 -85 -112 -18 -13 -27 -30 -28 -55 -2
-21 2 -36 8 -36 6 0 9 4 6 9 -3 4 6 23 19 41 14 19 25 40 25 47 0 7 6 13 13
13 8 0 19 10 26 23 24 46 47 81 56 84 6 1 25 -11 44 -27 18 -17 43 -30 55 -30
20 1 20 1 2 15 -10 8 -33 28 -52 44 -18 17 -39 31 -46 31 -7 0 -26 -22 -43
-47z"/>
<path d="M4762 9518 c-30 -30 -1 -68 52 -68 34 0 33 20 -2 53 -32 31 -34 31
-50 15z"/>
<path d="M5181 9161 c-27 -27 -20 -57 24 -96 19 -18 35 -31 35 -28 0 2 9 -1
20 -7 14 -7 20 -7 20 0 0 5 7 10 15 10 21 0 30 46 16 78 -26 55 -95 78 -130
43z"/>
<path d="M5006 8708 c3 -5 10 -6 15 -3 13 9 11 12 -6 12 -8 0 -12 -4 -9 -9z"/>
<path d="M4959 8693 c0 -5 -2 -16 -4 -25 -3 -15 0 -16 16 -8 23 13 25 22 4 14
-11 -5 -13 -2 -9 10 3 9 3 16 0 16 -3 0 -6 -3 -7 -7z"/>
<path d="M4906 8633 c-6 -14 -5 -15 5 -6 7 7 10 15 7 18 -3 3 -9 -2 -12 -12z"/>
<path d="M4191 8326 c-8 -10 -8 -16 3 -25 9 -8 16 -8 20 -2 4 5 2 12 -4 16 -6
4 -8 11 -5 16 9 14 -1 11 -14 -5z"/>
<path d="M1060 10145 c0 -8 7 -15 16 -15 14 0 14 3 4 15 -7 8 -14 15 -16 15
-2 0 -4 -7 -4 -15z"/>
<path d="M1349 9013 c-13 -15 -11 -16 11 -10 14 4 31 7 38 7 6 0 12 5 12 10 0
16 -46 11 -61 -7z"/>
<path d="M4086 8696 c-7 -35 -40 -144 -55 -181 -5 -11 -28 -78 -51 -150 -24
-71 -58 -163 -76 -204 -19 -40 -31 -77 -28 -83 3 -5 17 -13 30 -19 30 -11 27
-20 -51 -116 -30 -37 -55 -73 -55 -79 0 -22 42 -149 70 -211 29 -64 29 -73 -2
-73 -10 0 -18 -2 -18 -4 0 -11 74 -133 94 -154 50 -56 54 -38 7 29 -57 81 -62
99 -27 99 39 0 39 15 -2 78 -21 33 -49 92 -61 131 -12 39 -26 73 -32 76 -18
12 -9 42 22 71 32 30 159 196 159 208 0 3 -20 6 -45 6 -25 0 -45 4 -45 10 0 5
16 53 35 107 44 121 57 158 84 253 12 41 31 102 42 135 29 83 33 105 21 105
-5 0 -13 -15 -16 -34z"/>
<path d="M4607 8553 c-4 -3 -19 -8 -33 -9 -26 -3 -53 -29 -54 -51 0 -7 -1 -16
-2 -20 -2 -4 13 -8 32 -10 23 -2 30 -1 22 5 -11 7 -10 11 5 17 10 5 21 8 24 7
4 -1 5 8 2 18 -3 11 0 27 7 35 12 15 10 21 -3 8z"/>
<path d="M4615 8531 c-3 -5 -2 -12 3 -15 5 -3 9 1 9 9 0 17 -3 19 -12 6z"/>
<path d="M4650 8505 c-7 -8 -16 -13 -19 -10 -4 2 -8 -3 -8 -11 0 -11 6 -9 24
8 13 12 23 23 23 25 0 7 -8 2 -20 -12z"/>
<path d="M4740 8439 c0 -11 4 -18 10 -14 5 3 7 12 3 20 -7 21 -13 19 -13 -6z"/>
<path d="M1635 8423 c-26 -7 -78 -44 -71 -50 3 -3 34 2 70 12 241 65 434 -151
358 -402 -36 -116 -125 -233 -213 -279 -44 -22 -242 -26 -285 -4 -52 26 -100
68 -119 104 -14 25 -26 36 -42 36 -33 0 -29 -19 17 -88 68 -102 144 -142 269
-142 168 0 314 94 388 249 35 73 36 79 37 196 1 110 -1 125 -26 176 -28 61
-105 137 -172 171 -41 21 -166 34 -211 21z"/>
<path d="M5870 8089 c-112 -50 -141 -93 -138 -208 l1 -80 87 -90 c71 -74 95
-92 136 -104 l49 -14 -3 -44 c-2 -24 -5 -44 -5 -44 -1 -1 -84 -33 -184 -73
-100 -40 -190 -72 -201 -72 -11 0 -39 -7 -63 -15 -38 -14 -48 -14 -96 0 -77
23 -179 72 -217 105 -42 37 -105 49 -129 25 -22 -21 -21 -31 3 -55 14 -14 33
-20 66 -20 46 0 101 -25 168 -74 89 -67 130 -69 261 -17 124 51 381 76 507 50
79 -16 113 -35 154 -84 43 -53 69 -57 106 -17 35 37 56 81 90 187 30 98 37
208 17 295 -17 73 -60 187 -78 207 -9 10 -17 20 -17 23 0 3 -8 16 -18 30 -20
28 -20 25 22 -75 16 -38 39 -114 52 -168 21 -89 22 -106 12 -186 -6 -49 -20
-109 -33 -136 -21 -45 -67 -85 -98 -85 -8 0 -45 20 -81 44 -36 25 -99 61 -139
81 -63 32 -72 40 -67 58 3 12 6 29 6 39 0 11 18 22 56 34 90 28 172 125 194
231 12 58 11 64 -13 115 -55 117 -126 158 -270 157 -69 0 -103 -5 -137 -20z
m120 -9 c-62 -10 -105 -25 -144 -49 -45 -28 -55 -26 -26 4 30 32 99 54 165 53
l50 -1 -45 -7z"/>
<path d="M5440 7685 c0 -8 5 -15 10 -15 6 0 10 7 10 15 0 8 -4 15 -10 15 -5 0
-10 -7 -10 -15z"/>
<path d="M5527 7673 c-13 -12 -7 -33 8 -33 8 0 15 9 15 20 0 20 -11 26 -23 13z"/>
<path d="M5631 7666 c-9 -10 -9 -16 -1 -21 17 -10 37 12 24 25 -8 8 -15 6 -23
-4z"/>
<path d="M6365 7630 c3 -5 8 -10 11 -10 2 0 4 5 4 10 0 6 -5 10 -11 10 -5 0
-7 -4 -4 -10z"/>
<path d="M5670 7540 c0 -5 4 -10 9 -10 6 0 13 5 16 10 3 6 -1 10 -9 10 -9 0
-16 -4 -16 -10z"/>
<path d="M5480 7525 c0 -8 5 -15 10 -15 6 0 10 7 10 15 0 8 -4 15 -10 15 -5 0
-10 -7 -10 -15z"/>
<path d="M5566 7531 c-4 -5 -2 -12 3 -15 5 -4 12 -2 15 3 4 5 2 12 -3 15 -5 4
-12 2 -15 -3z"/>
<path d="M7088 7425 c-29 -25 -27 -35 8 -35 27 0 33 8 25 37 l-6 22 -27 -24z"/>
<path d="M3875 7420 c-3 -5 -16 -10 -28 -10 -43 0 -52 -14 -35 -52 9 -18 25
-53 36 -78 l21 -45 -36 -3 c-40 -4 -40 5 6 -121 17 -46 31 -85 31 -86 0 -2
-30 -5 -66 -7 -80 -5 -86 -11 -109 -116 -20 -90 -54 -168 -118 -271 -35 -56
-44 -78 -37 -91 7 -13 2 -29 -21 -61 -38 -53 -358 -370 -449 -444 -66 -54
-224 -212 -295 -295 -21 -25 -73 -81 -115 -126 -125 -129 -151 -197 -200 -526
-33 -225 -27 -986 11 -1313 6 -49 24 -141 41 -204 30 -114 30 -116 27 -342 -5
-313 7 -311 27 4 4 59 10 107 13 107 3 0 25 -56 48 -124 44 -129 91 -239 220
-506 95 -197 92 -190 109 -288 7 -46 49 -203 93 -350 44 -147 91 -316 105
-375 14 -59 48 -176 75 -260 27 -84 59 -201 71 -262 26 -133 75 -343 94 -405
72 -228 165 -520 203 -632 l46 -138 2534 0 2535 0 -6 28 c-3 15 -10 65 -16
112 -5 47 -14 119 -19 160 -44 324 -55 406 -81 560 -15 96 -31 227 -34 290 -4
63 -11 151 -16 195 -5 44 -14 134 -20 200 -29 297 -90 664 -150 905 -34 135
-49 298 -58 621 -6 201 -9 229 -26 247 -21 24 -96 52 -137 52 -15 0 -31 5 -34
10 -4 6 -13 142 -20 303 -11 251 -16 301 -35 357 -29 86 -108 237 -140 265
-14 13 -73 66 -131 118 -190 169 -532 518 -584 595 l-49 73 -7 112 c-4 62 -8
193 -8 293 -1 101 -6 195 -12 212 -8 24 -31 43 -100 84 -50 30 -89 59 -89 68
0 8 29 66 65 129 36 62 65 119 65 126 0 23 -67 74 -94 71 -17 -2 -23 1 -19 10
3 8 9 11 14 8 5 -3 9 -1 9 4 0 12 -33 48 -92 101 l-47 42 -51 -73 c-29 -40
-54 -79 -57 -86 -3 -7 7 -28 21 -46 14 -19 26 -38 26 -42 0 -4 -18 -26 -40
-50 -22 -24 -40 -54 -40 -66 0 -13 16 -46 36 -75 20 -29 33 -57 29 -63 -9 -15
-95 -4 -158 21 -26 10 -111 59 -190 107 -250 155 -523 302 -1012 545 -187 93
-501 227 -700 298 -182 66 -272 109 -314 152 -36 38 -34 57 5 57 13 0 24 5 24
10 0 6 -5 10 -12 10 -17 0 -179 126 -277 216 -68 62 -86 73 -93 61 -5 -10 -22
-16 -49 -15 -22 0 -42 -1 -44 -4 -2 -2 9 -24 25 -48 35 -53 37 -66 11 -80 -20
-10 -19 -50 1 -50 5 0 3 -7 -6 -15 -16 -16 -13 -34 12 -73 19 -30 6 -40 -42
-34 -33 4 -37 8 -71 89 -19 47 -33 88 -30 91 3 3 23 1 45 -5 46 -12 48 -7 19
39 -11 18 -36 59 -54 91 l-34 57 22 14 c12 7 30 18 41 23 11 6 14 13 8 17 -6
3 -13 2 -17 -4z m-67 -449 c-9 -16 -6 -23 23 -49 l33 -30 -12 -68 c-6 -38 -23
-105 -37 -148 -14 -44 -23 -88 -19 -98 5 -16 131 -105 213 -150 29 -16 43 -48
21 -48 -13 0 -111 41 -215 90 -44 21 -115 50 -158 65 -44 16 -81 34 -84 41 -3
8 15 44 39 81 60 91 84 145 101 232 18 86 29 101 73 101 31 0 33 -2 22 -19z
m267 -10 c116 -19 375 -84 475 -121 459 -166 865 -340 1130 -485 58 -32 143
-78 190 -103 233 -125 557 -312 645 -372 57 -39 141 -80 164 -80 10 0 21 -9
24 -19 4 -17 9 -18 48 -10 24 6 54 7 67 4 21 -5 23 -11 20 -53 -3 -46 -3 -47
-45 -55 -48 -9 -67 -28 -58 -57 5 -16 15 -20 54 -20 47 0 49 -1 54 -32 4 -18
9 -43 13 -55 6 -22 4 -23 -57 -22 -98 2 -111 8 -132 64 -15 40 -18 68 -14 137
l4 87 -31 10 c-17 6 -49 13 -72 17 -57 9 -65 -2 -164 -221 -47 -104 -199 -402
-216 -424 -9 -11 -179 159 -324 324 -445 508 -877 887 -1265 1112 -80 46 -352
183 -405 203 -86 33 -296 123 -307 132 -7 6 -13 24 -13 40 0 35 -14 35 215 -1z
m-360 -511 c17 -7 44 -14 61 -16 65 -6 204 -90 204 -122 0 -5 -24 -25 -53 -45
-74 -48 -167 -137 -249 -234 -39 -48 -77 -83 -87 -83 -10 0 -25 -8 -35 -18
-10 -12 -44 -24 -89 -31 -130 -23 -269 -62 -387 -108 -157 -62 -212 -91 -306
-161 -88 -65 -139 -121 -184 -203 -25 -45 -30 -50 -30 -28 0 44 68 141 170
241 54 53 112 117 129 141 16 24 88 97 158 162 70 65 218 210 328 322 l200
203 70 -3 c39 -2 84 -10 100 -17z m3230 -488 c-25 -48 -48 -102 -51 -120 -7
-37 -11 -38 -35 -16 -17 15 -16 21 27 105 24 49 53 98 65 110 40 40 37 6 -6
-79z m71 -205 l79 -42 7 -140 c3 -77 9 -225 12 -330 7 -201 3 -208 -34 -71
-10 39 -28 104 -39 145 -10 40 -17 79 -15 86 3 6 -2 33 -11 59 -9 26 -15 49
-13 51 2 2 21 -5 42 -16 22 -10 41 -19 43 -19 10 0 -3 194 -13 197 -12 4 -114
-126 -114 -144 0 -6 -10 -23 -22 -38 -20 -26 -22 -27 -35 -9 -20 27 -16 132 8
200 11 33 18 71 15 87 -3 15 -2 27 2 27 5 0 44 -19 88 -43z m-390 -44 c-6 -25
5 -109 20 -155 3 -10 0 -18 -6 -18 -20 0 -130 102 -130 120 0 19 22 40 65 63
45 24 58 22 51 -10z m-98 -525 c87 -87 166 -158 174 -158 17 0 36 -41 62 -135
10 -33 76 -178 148 -323 71 -145 128 -265 126 -267 -2 -2 -30 33 -63 78 -33
44 -91 122 -129 171 -286 380 -483 647 -498 679 -16 31 -17 44 -8 78 6 22 15
39 20 37 5 -2 81 -74 168 -160z m44 76 c40 -26 75 -79 58 -89 -20 -13 -128 63
-151 107 -10 19 -8 19 23 13 18 -4 50 -18 70 -31z m-186 -156 c55 -67 119
-150 144 -184 25 -34 140 -187 255 -339 203 -267 335 -449 335 -460 0 -3 22
-54 49 -113 27 -59 60 -132 74 -162 33 -71 121 -293 137 -345 7 -22 28 -77 46
-123 19 -45 34 -88 34 -95 0 -16 -34 35 -72 108 -54 106 -229 397 -306 510
-91 132 -162 225 -341 448 -135 168 -215 270 -375 482 -46 61 -120 155 -165
210 -44 55 -81 103 -81 107 0 14 14 8 44 -17 16 -14 31 -25 33 -25 2 0 11 16
19 37 22 51 44 83 59 83 7 0 57 -55 111 -122z m-3873 -103 c-2 -77 -8 -257
-12 -400 l-8 -260 -4 240 c-5 278 -1 559 8 595 6 25 6 25 13 -5 4 -16 5 -93 3
-170z m4901 -457 c113 -225 206 -414 206 -420 0 -24 -137 183 -223 337 -49 88
-93 165 -98 171 -5 6 -35 60 -65 120 -56 108 -90 214 -79 243 12 30 52 -39
259 -451z m158 47 c215 -211 258 -259 282 -309 15 -32 26 -68 24 -79 -2 -15
-17 -2 -69 59 -37 44 -104 115 -150 159 -177 168 -369 390 -369 427 0 18 33
-12 282 -257z m-356 168 c10 -21 19 -41 20 -44 2 -3 -9 -6 -23 -5 -27 1 -39
22 -42 69 -2 31 28 18 45 -20z m-290 -86 c5 -25 -1 -48 -9 -36 -30 43 -67 114
-67 127 1 25 68 -56 76 -91z m331 -129 c-3 -8 -6 -5 -6 6 -1 11 2 17 5 13 3
-3 4 -12 1 -19z m32 -58 c10 -8 32 -62 27 -67 -7 -8 -46 74 -45 94 1 15 2 15
6 -2 3 -11 8 -22 12 -25z m129 -265 c20 -44 74 -156 120 -250 104 -209 190
-411 231 -539 46 -142 37 -148 -18 -11 -55 140 -88 215 -166 380 -120 254
-236 517 -235 534 1 15 34 -41 68 -114z m514 2 c53 -83 76 -166 87 -304 28
-350 33 -455 22 -466 -15 -15 -17 -4 -36 173 -22 215 -51 385 -85 518 -17 62
-30 115 -30 117 0 16 19 -1 42 -38z m-5393 -348 c3 -85 80 -419 150 -654 17
-54 29 -101 27 -102 -5 -6 -62 142 -95 247 -63 201 -101 403 -100 530 1 55 3
67 9 45 4 -16 8 -46 9 -66z m5581 -548 c128 -33 128 -33 134 -93 3 -29 10
-138 16 -243 5 -104 13 -221 16 -260 4 -46 3 -67 -3 -60 -25 24 -175 373 -216
501 -26 77 -49 148 -53 157 -8 22 11 22 106 -2z m-870 -3146 c0 -16 -6 -25
-15 -25 -21 0 -31 30 -14 41 23 14 29 11 29 -16z"/>
<path d="M3325 5973 c-85 -19 -242 -80 -231 -90 2 -2 37 7 77 21 92 30 168 46
219 46 22 0 40 5 40 10 0 6 -13 10 -29 10 -16 0 -35 2 -43 4 -7 2 -22 2 -33
-1z"/>
<path d="M3440 5958 c0 -4 4 -8 9 -8 6 0 12 4 15 8 3 5 -1 9 -9 9 -8 0 -15 -4
-15 -9z"/>
<path d="M7007 5724 c-11 -11 3 -24 25 -24 17 0 18 2 8 15 -13 16 -23 19 -33
9z"/>
<path d="M7104 7313 c-17 -21 -41 -53 -54 -72 -22 -32 -22 -34 -6 -47 16 -11
17 -18 7 -45 -14 -41 -14 -44 3 -30 16 13 47 76 82 165 28 70 27 66 11 66 -8
0 -27 -17 -43 -37z"/>
<path d="M4736 7308 c14 -47 43 -68 164 -120 89 -39 95 -35 24 15 -34 23 -87
61 -117 85 -64 48 -82 53 -71 20z"/>
<path d="M6515 7175 c-168 -167 -205 -210 -205 -232 0 -8 26 16 58 54 31 38
79 87 106 109 27 21 54 44 60 49 6 6 32 27 59 48 47 39 81 88 75 110 -2 7 -71
-55 -153 -138z"/>
<path d="M6965 7029 c-22 -17 -41 -34 -43 -39 -3 -9 16 -20 62 -34 17 -6 17
-7 1 -34 -10 -15 -27 -36 -39 -47 l-21 -20 25 -3 c41 -5 80 -24 80 -38 0 -8
-20 -55 -45 -104 -25 -49 -45 -98 -45 -107 0 -10 -9 -32 -19 -49 -19 -31 -19
-32 -1 -52 10 -11 31 -49 45 -83 15 -35 38 -83 51 -107 16 -26 23 -50 19 -62
-8 -25 7 -26 28 -2 16 17 14 23 -26 88 -23 38 -53 92 -66 120 l-23 50 26 39
c28 40 32 61 15 67 -10 3 39 130 68 175 14 21 14 25 -1 42 -10 11 -28 22 -42
25 -29 8 -30 24 -3 72 22 41 19 64 -9 64 -30 0 -34 12 -10 37 32 34 18 35 -27
2z"/>
<path d="M6260 6992 c0 -7 -3 -11 -7 -10 -5 1 -33 -14 -63 -34 -61 -41 -81
-45 -251 -54 -63 -3 -131 -6 -150 -8 -33 -3 -135 20 -193 43 -27 11 -28 10
-15 -5 21 -25 88 -51 155 -59 113 -15 263 -13 328 5 33 9 64 17 69 18 4 1 13
2 20 2 19 0 124 97 115 106 -5 4 -8 2 -8 -4z"/>
<path d="M5460 6810 c47 -44 86 -80 88 -80 15 0 -45 72 -91 111 -93 78 -91 57
3 -31z"/>
<path d="M6304 6670 c3 -25 9 -85 12 -135 5 -76 11 -97 36 -137 53 -85 91 -95
42 -11 -15 26 -31 71 -35 98 -4 28 -15 82 -24 120 -9 39 -17 75 -19 82 -1 7
-6 16 -10 20 -5 4 -6 -12 -2 -37z"/>
<path d="M5556 6645 c54 -39 64 -42 64 -20 0 8 -6 15 -13 15 -7 0 -29 9 -50
20 -56 30 -56 24 -1 -15z"/>
<path d="M2078 6656 c-19 -14 -25 -32 -8 -21 6 3 10 2 10 -4 0 -5 -8 -15 -17
-20 -12 -7 -13 -10 -5 -11 10 0 13 -14 10 -54 -1 -30 0 -52 5 -49 4 2 7 -7 7
-21 0 -28 -9 -33 -29 -13 -10 10 -11 9 -6 -4 4 -12 0 -16 -17 -15 -13 1 -28 5
-35 9 -6 4 -15 3 -18 -3 -4 -6 -3 -10 2 -9 4 1 10 0 13 -1 15 -7 82 -5 86 2 9
15 26 8 20 -8 -5 -12 -2 -15 10 -10 8 3 20 6 25 6 5 0 1 8 -10 19 -22 22 -35
111 -26 176 8 50 8 50 -17 31z"/>
<path d="M5700 6571 c0 -10 30 -24 37 -17 3 2 -5 9 -16 16 -12 6 -21 7 -21 1z"/>
<path d="M5750 6520 c0 -33 7 -36 45 -18 32 14 32 26 -1 38 -39 15 -44 13 -44
-20z"/>
<path d="M2303 6453 c0 -51 -3 -64 -14 -57 -6 3 -3 -8 5 -25 9 -17 19 -31 21
-31 3 0 5 32 5 70 0 39 -4 70 -9 70 -5 0 -9 -12 -8 -27z"/>
<path d="M1835 6460 c-3 -5 -15 -10 -26 -10 -10 0 -19 -5 -19 -11 0 -5 -5 -7
-12 -3 -7 4 -8 3 -4 -4 4 -7 31 -12 62 -12 51 0 54 1 54 25 0 20 -5 25 -24 25
-14 0 -28 -4 -31 -10z"/>
<path d="M5730 6460 c0 -16 83 -90 101 -90 17 0 18 19 3 34 -51 51 -104 79
-104 56z"/>
<path d="M1925 6432 c-4 -4 -12 -7 -18 -7 -7 0 -12 -12 -12 -27 -1 -16 -7 -34
-14 -40 -11 -10 -12 -10 -7 0 9 15 -6 16 -22 0 -9 -9 -13 -7 -18 6 -6 15 -7
15 -20 -1 -13 -17 -14 -17 -7 2 6 18 5 19 -12 5 -15 -12 -17 -12 -10 -1 6 11
2 13 -19 9 -15 -3 -26 -1 -26 6 0 6 -4 5 -9 -3 -5 -8 -7 -21 -3 -29 3 -9 1
-13 -5 -9 -11 7 -28 -20 -24 -36 1 -5 -4 -5 -10 -2 -8 5 -8 10 0 18 15 15 14
24 -4 24 -8 0 -12 -4 -10 -8 7 -11 -79 -7 -94 5 -12 9 -13 8 -7 -3 7 -10 3
-12 -14 -6 -17 6 -21 4 -15 -6 5 -8 -1 -5 -13 5 -13 11 -22 14 -22 7 0 -8 -15
-10 -49 -7 -43 4 -49 2 -43 -12 5 -15 4 -15 -14 -2 -15 11 -16 11 -6 0 6 -8
12 -32 11 -54 0 -23 -3 -35 -6 -28 -2 6 -9 10 -14 6 -5 -3 -10 0 -10 5 -3 26
-4 30 -11 37 -4 3 -6 -2 -4 -12 3 -15 -3 -19 -25 -21 -17 -1 -28 1 -25 6 3 4
-2 8 -10 8 -8 0 -13 -5 -11 -12 3 -6 -3 -12 -13 -12 -11 -1 -20 6 -22 15 -2
11 -14 17 -40 17 -20 1 -35 -2 -33 -6 3 -4 -2 -10 -11 -13 -12 -4 -15 -2 -11
9 4 8 1 17 -5 21 -6 4 -8 3 -5 -3 4 -6 -1 -19 -9 -29 -9 -10 -12 -13 -8 -5 5
9 3 12 -4 7 -7 -4 -12 -18 -12 -32 0 -13 -5 -24 -11 -24 -6 0 -9 6 -6 13 2 6
-2 24 -9 38 -7 15 -11 29 -9 31 3 3 -2 5 -10 5 -10 0 -12 -4 -5 -12 8 -9 6
-14 -6 -19 -24 -9 -37 3 -22 22 11 15 11 15 -3 5 -9 -7 -19 -10 -22 -7 -4 4
-5 -2 -3 -13 4 -16 -1 -20 -22 -19 -29 1 -36 20 -18 46 9 13 8 13 -5 3 -10 -8
-15 -27 -14 -57 1 -25 -2 -43 -7 -40 -4 3 -6 10 -3 15 4 5 -1 9 -10 9 -9 0
-13 5 -10 10 4 6 11 7 17 4 7 -4 8 -2 4 5 -6 8 -12 9 -20 2 -7 -6 -17 -7 -21
-3 -5 4 -5 1 -1 -5 4 -8 2 -13 -7 -13 -9 0 -13 11 -11 38 1 20 3 38 4 40 1 1
4 7 5 12 1 6 4 12 5 15 1 3 3 10 4 15 0 6 5 9 11 8 5 -2 9 -7 7 -11 -1 -5 2
-5 8 -2 8 5 6 13 -6 26 -9 10 -19 19 -22 19 -3 0 -2 -3 1 -7 4 -3 2 -12 -4
-20 -6 -7 -8 -13 -4 -13 4 0 2 -7 -5 -15 -7 -8 -9 -15 -5 -15 4 0 3 -6 -2 -12
-6 -7 -9 -25 -8 -41 1 -15 -3 -31 -10 -37 -8 -7 -11 -1 -9 21 3 36 -8 30 -12
-7 -3 -27 -23 -58 -32 -49 -3 3 -12 0 -19 -7 -11 -9 -16 -9 -23 2 -13 20 26
46 45 30 11 -9 14 -6 13 18 -1 16 2 34 6 40 3 6 2 14 -4 17 -6 4 -10 3 -9 -2
3 -19 -2 -34 -10 -29 -10 7 -9 25 3 44 6 11 12 10 29 -5 l22 -18 -19 23 c-18
21 -21 21 -37 6 -10 -9 -17 -20 -16 -24 1 -4 -2 -8 -8 -9 -5 -1 -11 4 -11 9
-1 6 -3 12 -4 15 -7 13 -5 31 4 43 14 19 28 -8 14 -28 -6 -8 1 -2 16 13 23 25
28 56 6 42 -4 -3 -13 2 -20 10 -10 12 -16 13 -26 4 -8 -6 -11 -15 -8 -20 3 -5
-1 -9 -8 -9 -8 0 -9 -3 -3 -8 6 -4 10 -14 10 -22 -1 -8 1 -19 4 -25 8 -15 10
-89 2 -79 -3 5 -15 9 -26 9 -22 0 -29 39 -11 64 14 18 16 40 6 46 -5 3 -7 -3
-5 -14 2 -11 -2 -24 -9 -30 -7 -6 -12 -23 -11 -38 1 -27 -29 -62 -42 -49 -3 3
-15 0 -27 -6 -19 -10 -19 -9 -8 4 8 10 9 19 3 22 -5 4 -8 15 -6 26 2 12 0 18
-5 15 -9 -6 -8 -24 3 -42 5 -7 5 -13 0 -13 -15 0 -29 15 -28 30 1 8 -6 23 -14
33 -30 35 -19 53 29 49 3 0 4 16 1 36 -3 20 -6 29 -9 19 -2 -9 -8 -15 -13 -12
-5 4 -9 1 -9 -5 0 -6 -4 -8 -10 -5 -5 3 -10 1 -10 -5 0 -6 -4 -9 -9 -5 -5 3
-13 0 -17 -7 -9 -14 -15 -153 -7 -144 3 3 6 36 7 73 1 37 6 67 12 66 5 -2 9
-12 9 -22 0 -10 7 -27 16 -37 8 -11 15 -24 15 -30 -1 -14 -36 -49 -36 -35 0 5
4 12 9 15 10 6 9 31 -1 42 -4 3 -5 -2 -4 -13 2 -10 -1 -24 -6 -30 -6 -7 -8
-19 -5 -26 4 -10 -7 -13 -41 -12 -40 0 -47 4 -52 23 -3 13 -10 23 -15 24 -6 0
-8 5 -6 11 2 7 5 23 6 37 2 14 4 25 5 25 1 0 3 8 5 18 2 9 -1 15 -6 11 -5 -3
-9 1 -9 10 0 8 8 13 18 12 11 -2 17 -11 16 -25 -1 -12 1 -19 5 -16 3 4 6 10 6
13 0 4 4 14 9 22 5 8 6 12 1 8 -4 -4 -14 -3 -22 3 -7 6 -13 8 -13 4 0 -5 -10
0 -22 11 -12 10 -18 13 -14 7 4 -7 4 -13 -1 -14 -4 0 -16 -2 -26 -4 -9 -2 -15
1 -12 5 3 5 2 11 -3 14 -13 8 -11 -28 2 -36 8 -5 7 -8 -1 -8 -7 0 -13 -10 -13
-23 0 -32 -22 -77 -38 -77 -7 0 -11 4 -8 9 4 5 -21 8 -56 6 -35 -1 -57 -1 -50
2 6 3 10 9 7 13 -3 5 0 12 6 16 8 4 9 3 5 -4 -9 -15 -1 -15 25 -2 10 6 19 16
19 22 0 6 -7 5 -17 -3 -16 -12 -17 -12 -6 2 7 9 12 18 10 20 -1 3 6 -4 15 -14
15 -16 18 -16 18 -4 0 9 -5 19 -10 22 -6 4 -8 10 -5 15 3 4 -5 6 -17 2 -17 -4
-20 -2 -15 11 3 9 2 19 -2 22 -5 2 -8 -11 -6 -30 1 -20 -1 -37 -5 -40 -3 -2
-6 6 -7 18 -1 12 -4 32 -7 45 -3 12 -1 20 4 17 5 -3 11 -1 14 4 4 5 -2 11 -11
14 -14 3 -13 4 2 3 11 -1 19 -6 18 -11 0 -6 5 -16 13 -23 19 -18 19 6 -1 31
-17 24 -61 19 -59 -6 2 -13 -1 -15 -11 -7 -9 7 -16 6 -24 -3 -6 -8 -9 -16 -6
-19 3 -2 -2 -5 -10 -5 -8 0 -12 4 -9 9 3 5 0 7 -8 6 -7 -2 -12 3 -10 11 3 12
0 12 -12 2 -8 -7 -12 -19 -9 -27 3 -9 0 -14 -8 -12 -8 2 -13 -3 -11 -9 1 -7
-5 -13 -14 -13 -13 0 -14 -3 -5 -14 9 -10 7 -17 -6 -27 -16 -12 -17 -12 -6 2
10 12 10 18 1 27 -20 20 -48 14 -48 -9 0 -13 4 -18 12 -13 7 5 8 3 2 -7 -12
-19 -17 -60 -7 -57 4 2 8 -1 8 -7 0 -5 -3 -9 -8 -7 -4 1 -7 -386 -7 -861 0
-743 2 -864 15 -864 8 0 12 4 9 9 -3 4 2 8 11 8 9 0 14 -4 11 -8 -6 -10 85
-10 100 0 6 4 11 1 11 -7 0 -8 -4 -12 -8 -9 -4 2 -10 0 -14 -5 -3 -5 -14 -8
-25 -6 -12 2 -18 0 -15 -5 4 -7 34 -7 43 0 17 15 66 -15 55 -33 -3 -6 -1 -7 6
-3 6 4 9 12 6 17 -4 5 -2 9 4 9 5 0 16 6 23 13 61 56 100 67 146 43 69 -37
182 -80 189 -72 3 3 0 18 -7 33 -28 62 -13 139 42 215 10 13 6 22 -20 52 -39
44 -40 60 -7 82 l26 17 139 -139 c78 -77 140 -147 140 -157 0 -10 -7 -31 -15
-47 -14 -28 -14 -29 6 -25 12 2 28 10 37 17 13 11 14 11 7 -2 -8 -13 -7 -13 8
-1 14 11 17 11 17 0 0 -12 2 -12 9 -1 4 8 11 13 15 13 3 -1 7 -1 9 0 19 6 36
6 32 0 -6 -10 36 -8 53 2 7 5 12 3 12 -4 0 -7 3 -10 6 -6 3 3 3 11 -1 17 -5 8
-11 8 -21 -1 -10 -8 -14 -8 -14 0 0 15 10 16 90 8 14 -1 31 5 38 13 11 13 11
13 7 -1 -4 -10 0 -16 9 -16 8 0 13 4 10 8 -2 4 0 11 6 14 6 4 10 3 9 -2 -4
-22 2 -34 14 -26 20 12 36 12 31 -1 -6 -16 69 -14 109 3 16 6 26 7 22 2 -3 -5
-1 -13 5 -16 8 -5 8 -11 1 -19 -8 -9 -7 -13 4 -13 7 0 13 5 12 11 -1 6 3 10
10 9 8 -2 10 4 6 15 -6 15 -5 16 12 2 11 -9 16 -10 11 -2 -4 7 -2 12 4 12 6 0
8 6 5 13 -4 6 2 2 13 -11 15 -16 22 -18 26 -10 4 7 4 3 2 -9 -4 -25 8 -40 19
-23 4 6 11 8 16 5 5 -3 6 0 4 8 -5 10 13 13 89 12 65 -1 93 2 89 9 -3 6 -3 8
2 4 4 -4 13 -3 20 2 8 7 12 5 12 -5 0 -7 -3 -13 -6 -12 -3 1 -7 -1 -8 -5 -2
-5 0 -7 5 -7 22 4 30 12 25 27 -4 14 -3 15 5 2 7 -9 7 -19 2 -25 -7 -8 -5 -12
5 -12 8 0 12 4 9 9 -3 4 0 8 7 8 9 0 9 3 0 14 -8 9 -8 16 -2 20 12 8 19 -4 16
-26 -2 -9 4 -23 13 -30 15 -12 16 -11 3 5 -8 10 -9 17 -3 17 6 0 14 -5 17 -10
5 -8 11 -7 21 1 11 9 14 9 14 0 0 -8 5 -7 15 3 18 17 19 39 4 69 -10 21 -10
21 5 3 9 -11 16 -34 16 -50 0 -24 3 -27 10 -16 5 8 10 11 10 6 0 -5 6 -3 13 3
8 6 17 8 21 4 3 -4 13 -8 20 -9 15 -2 16 13 1 35 -7 12 -10 11 -16 -5 -6 -15
-8 -15 -8 -3 -1 9 7 23 16 30 10 8 14 9 10 2 -4 -6 -3 -14 3 -18 10 -6 13 3
13 38 0 12 3 14 12 7 6 -5 14 -8 17 -5 2 3 5 -1 5 -9 0 -8 -5 -14 -10 -13 -5
1 -12 -4 -14 -11 -3 -7 1 -10 10 -6 8 3 18 1 22 -5 3 -7 0 -8 -10 -5 -11 5
-14 2 -9 -12 6 -17 5 -17 -10 1 -17 20 -17 20 -7 -1 6 -12 8 -24 5 -26 -2 -3
4 -11 13 -19 16 -13 17 -12 4 4 -15 20 -2 23 18 5 10 -9 12 -9 7 -1 -3 6 -1
15 5 18 5 4 7 14 3 24 -12 30 -12 79 2 77 25 -4 46 -30 41 -53 -2 -13 0 -26 4
-29 5 -3 10 4 10 15 2 35 4 39 14 48 6 4 7 4 3 -1 -4 -5 -2 -16 5 -24 9 -13 9
-14 0 -8 -9 5 -13 0 -13 -16 0 -18 2 -20 10 -8 5 8 10 10 10 4 0 -18 -27 -37
-35 -24 -3 6 -11 7 -17 4 -6 -4 -8 -2 -5 3 4 6 0 16 -8 23 -18 15 -19 7 -4
-22 6 -11 7 -18 2 -15 -5 4 -10 -1 -10 -9 0 -10 4 -11 11 -4 13 13 36 13 36
-1 0 -5 -4 -8 -9 -4 -5 3 -13 1 -16 -5 -4 -6 -3 -9 2 -8 13 4 53 -22 53 -34 0
-6 -7 -5 -17 3 -16 13 -17 12 -4 -3 15 -20 35 -14 27 8 -3 8 1 14 9 14 14 0
11 -23 -6 -46 -5 -6 -3 -11 6 -11 7 0 14 3 13 6 -2 22 3 41 10 37 11 -6 9 -36
-3 -56 -7 -12 -6 -13 7 -3 8 7 18 11 22 8 3 -3 2 1 -4 7 -15 18 -12 32 5 18
12 -10 14 -8 10 9 -2 11 0 23 6 26 12 8 12 25 -2 25 -5 0 -7 -5 -3 -12 5 -7 3
-8 -6 -3 -10 6 -9 11 5 22 10 7 20 23 22 35 2 18 1 20 -7 8 -5 -8 -10 -10 -10
-5 1 6 7 18 14 28 13 16 14 12 12 -37 -1 -31 1 -56 6 -56 5 0 4 -8 -1 -19 -6
-10 -7 -21 -4 -25 4 -4 6 -23 4 -44 -1 -20 -4 -73 -6 -117 -2 -44 -4 -84 -5
-90 -7 -51 2 -755 10 -755 6 0 10 100 11 268 1 147 2 290 3 317 2 28 6 235 10
460 4 226 9 416 11 423 3 7 8 255 11 552 l7 538 -44 -5 c-67 -8 -136 28 -160
81 -21 47 -24 121 -6 151 49 83 87 104 120 67 25 -27 21 -56 -12 -80 -34 -25
-42 -56 -24 -94 15 -31 42 -42 84 -33 35 8 49 36 49 96 0 37 -7 46 -102 140
-60 58 -108 97 -116 94 -7 -3 -11 -9 -8 -13 3 -5 -1 -9 -9 -9 -8 0 -15 5 -15
10 0 5 -10 3 -22 -5 -33 -20 -60 -17 -88 11 -22 21 -23 22 -3 12 12 -6 23 -16
26 -23 3 -7 4 -3 4 9 -1 12 -4 20 -8 17 -4 -2 -12 3 -19 11 -7 8 -16 13 -20
10 -5 -3 -11 -1 -14 4 -8 12 37 8 46 -4 5 -6 8 -4 8 4 0 11 4 9 16 -5 14 -18
15 -18 4 3 -6 13 -14 22 -18 22 -4 -1 -9 0 -12 1 -17 6 -40 7 -45 2z m-7 -47
c-3 -3 -9 2 -12 12 -6 14 -5 15 5 6 7 -7 10 -15 7 -18z m-1795 -29 c15 -22 15
-25 -6 -42 -14 -12 -17 -13 -9 -3 6 9 9 19 5 22 -3 4 -11 0 -17 -9 -10 -13
-12 -13 -12 5 0 11 5 19 11 18 5 -1 9 6 9 16 -2 23 1 22 19 -7z m691 1 c4 4 4
-1 0 -11 -6 -17 -8 -17 -16 -2 -7 13 -13 14 -23 6 -10 -9 -13 -7 -10 7 2 10 4
20 4 22 1 2 9 -3 19 -12 10 -10 22 -14 26 -10z m1132 -9 c-9 -5 -13 -15 -10
-21 4 -7 3 -9 -1 -4 -5 4 -16 0 -25 -8 -14 -13 -17 -13 -17 -1 0 8 5 14 11 13
6 -1 10 4 9 11 -2 6 3 11 10 10 6 -2 11 2 10 9 -2 7 4 10 13 6 15 -5 15 -7 0
-15z m-140 -35 c0 -15 -3 -20 -10 -13 -14 14 -16 37 -2 37 7 0 12 -11 12 -24z
m-195 4 c-6 -8 -7 -18 -3 -22 4 -5 1 -5 -6 -1 -10 6 -10 11 -1 22 6 8 14 14
16 14 3 0 0 -6 -6 -13z m50 -10 c-8 -8 -6 -16 5 -28 10 -12 12 -19 4 -24 -6
-4 -9 -1 -8 7 2 7 -2 12 -9 11 -9 -2 -11 16 -3 37 1 3 2 9 1 13 -1 5 4 5 10 2
8 -5 8 -10 0 -18z m66 8 c0 -8 -4 -12 -9 -9 -5 3 -6 10 -3 15 9 13 12 11 12
-6z m108 6 c3 -5 2 -12 -3 -15 -5 -3 -9 1 -9 9 0 17 3 19 12 6z m35 -6 c-5 -7
-8 -14 -5 -17 3 -2 -2 -5 -10 -5 -10 0 -12 4 -5 12 5 7 8 14 5 17 -3 2 2 5 10
5 10 0 12 -4 5 -12z m-1430 1 c0 -2 -7 -7 -16 -10 -8 -3 -12 -2 -9 4 6 10 25
14 25 6z m-235 -15 c-9 -8 -36 -10 -30 -2 2 4 11 8 20 8 8 0 13 -3 10 -6z
m1720 -24 c-12 -6 -21 -5 -28 3 -9 10 -9 11 1 6 6 -4 12 -3 12 3 0 6 7 8 16 4
15 -5 15 -7 -1 -16z m-347 -8 c9 -12 9 -16 -1 -16 -7 0 -14 9 -14 20 -1 11 -1
18 0 16 2 -2 8 -11 15 -20z m-1553 2 c3 -5 2 -12 -3 -15 -5 -3 -9 1 -9 9 0 17
3 19 12 6z m110 0 c3 -5 2 -12 -3 -15 -5 -3 -9 1 -9 9 0 17 3 19 12 6z m1412
-16 c0 -6 -6 -12 -12 -12 -6 0 -12 6 -12 12 0 6 6 12 12 12 6 0 12 -6 12 -12z
m81 8 c0 -5 2 -16 7 -26 5 -13 10 -15 15 -7 5 8 9 7 13 -5 4 -9 3 -13 -2 -10
-5 3 -12 1 -15 -3 -10 -16 -59 -7 -62 12 -2 14 0 15 14 4 13 -11 15 -11 10 3
-4 9 -1 22 5 28 13 13 18 14 15 4z m166 -1 c3 -5 -1 -9 -9 -9 -8 0 -12 4 -9 9
3 4 7 8 9 8 2 0 6 -4 9 -8z m-990 -18 c3 -8 2 -12 -4 -9 -6 3 -10 10 -10 16 0
14 7 11 14 -7z m919 -9 c-3 -9 -8 -14 -10 -11 -3 3 -2 9 2 15 9 16 15 13 8 -4z
m-23 -1 c0 -8 -19 -13 -24 -6 -3 5 1 9 9 9 8 0 15 -2 15 -3z m-652 -37 c9 -10
6 -13 -13 -13 -27 0 -33 11 -12 19 6 3 13 6 13 6 1 1 6 -5 12 -12z m509 -22
c0 -8 -4 -12 -9 -9 -5 3 -6 10 -3 15 9 13 12 11 12 -6z m-750 -8 c0 -8 -6 -14
-14 -14 -9 0 -10 4 -2 14 6 7 12 13 14 13 1 0 2 -6 2 -13z m1268 -159 c102
-49 120 -192 29 -242 -10 -6 -21 -14 -24 -18 -3 -4 -28 -10 -55 -13 -42 -6
-55 -3 -85 17 -47 31 -82 101 -76 152 6 49 52 107 97 123 38 13 55 10 114 -19z
m-362 -143 c9 -8 17 -20 20 -27 3 -10 9 -11 26 0 46 27 75 2 51 -44 -13 -23
-11 -27 30 -69 39 -40 49 -45 87 -45 54 0 63 -18 33 -61 -20 -27 -26 -30 -59
-24 -24 4 -48 19 -70 43 -51 54 -81 72 -110 65 -31 -8 -52 19 -45 56 4 18 0
32 -10 40 -21 17 -20 40 1 63 20 22 27 22 46 3z m-115 -111 c32 -22 27 -36
-22 -65 -44 -27 -61 -62 -45 -92 9 -16 12 -15 124 15 56 16 60 16 97 0 80 -33
72 -143 -17 -221 -42 -36 -65 -39 -91 -10 -20 22 -13 32 31 45 11 3 33 22 49
41 22 26 27 39 20 51 -18 28 -48 31 -105 10 -93 -33 -156 -13 -179 58 -14 41
5 87 61 145 42 44 46 45 77 23z m-173 -404 c19 -12 35 -27 35 -33 0 -7 -25
-38 -56 -70 -59 -61 -64 -87 -19 -87 32 0 84 37 96 68 11 29 31 24 43 -11 8
-22 6 -31 -15 -53 -63 -67 -163 -84 -216 -36 -36 33 -55 67 -60 107 -6 47 4
71 45 111 32 31 42 35 74 31 21 -3 53 -15 73 -27z m-457 -232 l39 -42 24 25
c29 31 84 59 116 59 29 0 103 -37 103 -51 0 -6 9 -22 20 -36 24 -31 25 -67 4
-119 -16 -40 -90 -124 -109 -124 -16 0 -285 275 -285 292 0 17 20 38 37 38 7
0 30 -19 51 -42z m20 -204 c56 -34 77 -73 77 -140 0 -52 -4 -67 -24 -88 -72
-77 -157 -73 -229 8 -38 44 -46 67 -38 120 15 97 130 151 214 100z m1199 -319
c-4 -8 -2 -17 3 -20 9 -5 14 6 12 26 -1 3 6 6 14 6 10 0 11 -4 4 -11 -14 -14
-13 -29 3 -20 10 6 10 4 0 -7 -19 -20 -16 -33 5 -18 16 12 16 12 0 -6 -16 -17
-16 -20 -2 -36 14 -16 14 -18 -5 -24 -22 -7 -26 -16 -14 -29 4 -3 8 -14 9 -23
2 -12 -4 -9 -23 9 -18 19 -23 31 -18 47 3 12 11 19 16 15 6 -4 6 -11 -2 -20
-6 -8 -10 -16 -8 -18 2 -2 13 8 23 22 11 14 13 22 6 17 -9 -5 -11 -4 -6 4 5 7
2 10 -5 9 -8 -2 -14 8 -14 25 0 15 -5 27 -10 26 -6 -1 -8 -6 -7 -12 2 -7 0 -8
-4 -4 -11 11 -14 38 -3 31 5 -3 12 2 15 10 3 9 8 16 11 16 3 0 3 -7 0 -15z
m-258 -32 c-3 -20 2 -34 10 -29 5 4 8 0 7 -6 -1 -7 -5 -14 -9 -15 -4 -2 -6 -2
-5 0 1 1 -4 12 -10 23 -6 12 -8 24 -5 28 8 8 13 8 12 -1z m238 -72 c-15 -37
-20 -41 -35 -32 -10 6 -8 13 8 33 11 15 20 32 20 40 0 10 2 10 9 -1 6 -9 5
-24 -2 -40z m-2083 21 c3 -5 -1 -9 -9 -9 -8 0 -12 4 -9 9 3 4 7 8 9 8 2 0 6
-4 9 -8z m1778 -7 c15 1 25 -2 22 -7 -3 -4 -9 -6 -14 -3 -5 3 -12 1 -15 -5 -8
-13 -35 6 -35 24 0 8 3 8 8 0 4 -6 19 -10 34 -9z m-351 -28 c-10 -9 -11 -8 -5
6 3 10 9 15 12 12 3 -3 0 -11 -7 -18z"/>
<path d="M1614 6232 c0 -10 6 -19 13 -19 8 0 9 6 2 19 -5 10 -11 18 -12 18 -2
0 -3 -8 -3 -18z"/>
<path d="M1944 5925 c-14 -21 -14 -30 -4 -54 24 -59 87 -90 128 -63 39 25 23
100 -27 127 -44 22 -78 19 -97 -10z"/>
<path d="M1300 5300 c-25 -25 -26 -56 -1 -70 16 -8 25 -4 51 26 25 28 29 39
19 50 -16 20 -46 17 -69 -6z"/>
<path d="M1083 5073 c-22 -15 -33 -63 -14 -63 4 0 29 -21 55 -46 l48 -46 24
23 c39 36 31 105 -16 132 -35 21 -68 21 -97 0z"/>
<path d="M890 4862 c-39 -6 -50 -20 -43 -55 9 -47 31 -75 68 -87 50 -16 75 0
75 49 0 57 -47 101 -100 93z"/>
<path d="M2199 4568 c-5 -9 -5 -48 -1 -43 6 6 11 45 5 45 -2 0 -4 -1 -4 -2z"/>
<path d="M2143 4485 c-3 -9 -3 -18 -1 -21 3 -3 8 4 11 16 6 23 -1 27 -10 5z"/>
<path d="M1043 6405 c0 -8 4 -12 9 -9 5 3 6 10 3 15 -9 13 -12 11 -12 -6z"/>
<path d="M2050 6405 c0 -21 16 -26 30 -10 7 8 11 15 9 16 -32 6 -39 5 -39 -6z"/>
<path d="M49 6395 c-1 -3 -3 -9 -4 -15 -1 -5 -3 -15 -4 -21 0 -5 -5 -8 -10 -4
-5 3 -13 0 -17 -6 -4 -7 -3 -9 4 -5 6 3 13 2 17 -4 10 -16 25 -1 18 17 -4 10
-2 14 5 9 6 -3 14 -2 17 4 4 6 1 9 -7 8 -7 -2 -12 3 -10 10 2 11 -6 18 -9 7z"/>
<path d="M885 6390 c-4 -6 -12 -7 -18 -3 -8 5 -8 2 0 -9 7 -8 9 -18 5 -22 -4
-4 -7 -13 -7 -19 -1 -7 -7 -11 -15 -9 -11 3 -11 0 0 -12 7 -9 15 -16 18 -16 3
0 2 3 -1 7 -4 3 -2 12 4 20 6 7 8 13 4 13 -4 0 -2 7 5 15 7 8 9 15 5 15 -4 0
-2 7 5 15 7 8 10 15 7 15 -3 0 -9 -5 -12 -10z"/>
<path d="M927 6378 c11 -12 24 -16 37 -12 18 5 17 2 -9 -27 -16 -19 -20 -25
-7 -15 26 23 29 11 5 -18 -18 -21 -18 -21 4 -2 15 13 39 19 75 20 33 1 53 5
53 13 0 6 3 15 7 19 4 3 6 -2 4 -13 -3 -14 2 -19 19 -19 28 0 27 26 -1 36 -28
9 -49 6 -46 -8 1 -9 -6 -7 -23 4 -31 20 -33 29 -2 13 22 -12 22 -12 2 8 -18
18 -21 18 -33 4 -12 -15 -13 -15 -9 0 3 9 -1 16 -8 16 -7 0 -11 -6 -8 -14 4
-9 0 -11 -11 -7 -9 3 -14 9 -11 13 2 4 -9 7 -25 7 -28 0 -29 -1 -13 -18z m28
-6 c-3 -3 -11 0 -18 7 -9 10 -8 11 6 5 10 -3 15 -9 12 -12z m61 -18 c-1 -8 -6
-17 -11 -21 -4 -4 -5 -2 0 6 6 10 2 11 -16 6 -20 -7 -22 -6 -12 7 16 18 41 19
39 2z"/>
<path d="M283 6377 c-3 -5 0 -14 6 -20 9 -9 10 -7 5 8 -7 17 -5 18 7 8 13 -10
16 -10 16 0 0 15 -25 18 -34 4z"/>
<path d="M1693 6373 c0 -9 4 -10 14 -2 7 6 13 12 13 14 0 1 -6 2 -13 2 -8 0
-14 -6 -14 -14z"/>
<path d="M1232 6364 c-13 -6 -24 -13 -24 -15 -4 -10 51 -59 65 -59 22 0 14 34
-9 38 -10 2 -23 8 -28 13 -6 5 0 7 14 4 12 -2 20 -2 16 2 -3 3 -1 11 4 18 13
15 -7 15 -38 -1z"/>
<path d="M1656 6368 c3 -5 10 -6 15 -3 13 9 11 12 -6 12 -8 0 -12 -4 -9 -9z"/>
<path d="M2035 6370 c-4 -6 -10 -8 -15 -5 -5 3 -11 1 -14 -4 -8 -13 22 -7 36
7 7 7 9 12 6 12 -4 0 -10 -5 -13 -10z"/>
<path d="M620 6348 c0 -3 6 -11 14 -17 10 -9 17 -7 27 6 12 16 12 17 -2 6 -12
-10 -18 -10 -27 -1 -7 7 -12 9 -12 6z"/>
<path d="M1291 6340 c-9 -5 -10 -9 -2 -14 6 -4 9 -11 6 -16 -3 -4 3 -14 12
-21 9 -8 14 -9 10 -3 -4 7 0 14 8 18 21 8 19 41 -3 43 -10 1 -24 -2 -31 -7z"/>
<path d="M670 6325 c-7 -8 -9 -15 -5 -15 4 0 1 -7 -6 -16 -14 -18 -20 -62 -9
-69 4 -2 6 8 5 23 -1 15 5 35 13 45 8 9 12 17 7 17 -4 0 -2 7 5 15 7 8 10 15
7 15 -2 0 -10 -7 -17 -15z"/>
<path d="M699 6330 c-3 -20 -5 -25 -14 -40 -11 -17 -15 -81 -5 -75 4 2 6 17 5
32 -1 15 3 34 9 41 11 15 19 52 11 52 -3 0 -6 -4 -6 -10z"/>
<path d="M913 6308 c3 -9 3 -19 -1 -22 -10 -11 -11 -36 0 -30 5 3 7 9 4 12 -3
3 -2 10 4 16 5 7 5 17 -2 26 -8 13 -9 12 -5 -2z"/>
<path d="M623 6293 c0 -9 4 -10 14 -2 7 6 13 12 13 14 0 1 -6 2 -13 2 -8 0
-14 -6 -14 -14z"/>
<path d="M1099 6296 c5 -6 7 -19 5 -29 -1 -11 0 -16 4 -12 12 12 9 52 -4 52
-9 0 -10 -5 -5 -11z"/>
<path d="M1380 6301 c0 -6 4 -13 10 -16 6 -3 7 1 4 9 -7 18 -14 21 -14 7z"/>
<path d="M580 6295 c0 -2 6 -8 13 -14 10 -8 14 -7 14 2 0 8 -6 14 -14 14 -7 0
-13 -1 -13 -2z"/>
<path d="M989 6293 c0 -5 -2 -16 -4 -26 -2 -11 -1 -16 3 -13 8 8 14 46 7 46
-3 0 -5 -3 -6 -7z"/>
<path d="M1339 6298 c-5 -18 -6 -38 -1 -34 7 8 12 36 6 36 -2 0 -4 -1 -5 -2z"/>
<path d="M480 6285 c0 -2 6 -8 13 -14 10 -8 14 -7 14 2 0 8 -6 14 -14 14 -7 0
-13 -1 -13 -2z"/>
<path d="M739 6288 c-4 -12 -5 -57 0 -53 6 6 10 55 4 55 -1 0 -3 -1 -4 -2z"/>
<path d="M441 6247 c-13 -21 -12 -21 5 -5 10 10 16 20 13 22 -3 3 -11 -5 -18
-17z"/>
<path d="M471 6263 c1 -4 0 -10 -1 -13 -1 -3 -3 -18 -5 -35 -3 -23 -2 -25 4
-10 l8 20 5 -20 c4 -15 6 -16 7 -3 0 9 -4 20 -9 23 -8 5 -8 11 0 20 8 9 8 15
0 20 -6 4 -10 3 -9 -2z"/>
<path d="M497 6243 c-2 -5 0 -19 4 -33 7 -23 7 -22 6 8 -1 33 -3 37 -10 25z"/>
<path d="M640 4621 c-18 -35 -11 -68 21 -95 17 -14 38 -26 48 -26 18 0 61 27
61 38 -1 16 -87 102 -102 102 -10 0 -22 -9 -28 -19z"/>
<path d="M2069 4589 c0 -2 -2 -15 -5 -29 -4 -25 -3 -25 12 -5 13 16 15 16 11
3 -3 -10 -2 -20 3 -23 16 -10 11 32 -5 45 -8 7 -15 11 -16 9z"/>
<path d="M2351 4520 c-1 -8 -8 -105 -16 -215 -18 -227 -21 -799 -5 -837 l10
-23 -2 25 c-1 14 2 31 6 39 7 10 6 12 -4 6 -9 -5 -11 -4 -6 3 4 7 14 12 22 12
8 0 12 -4 9 -10 -3 -5 -1 -10 4 -10 6 0 11 -7 11 -16 0 -8 4 -13 9 -10 5 3 8
21 6 40 -2 23 3 42 16 57 10 12 16 26 13 30 -3 5 -1 9 5 9 7 0 7 8 2 24 -7 16
-5 27 5 37 10 11 12 23 5 45 -5 17 -5 37 -2 45 4 8 7 23 6 34 -1 11 -2 36 -3
55 -2 28 -5 32 -13 20 -9 -12 -10 -11 -6 7 3 13 0 26 -5 30 -7 4 -8 1 -3 -7 5
-8 4 -11 -2 -7 -6 4 -11 21 -11 39 0 18 -1 35 -2 38 -5 16 -13 159 -13 237 1
71 -3 93 -14 97 -9 4 -11 11 -6 18 9 16 5 137 -7 175 -5 16 -9 21 -9 13z"/>
<path d="M1548 4472 c-5 -18 -3 -20 12 -12 9 5 20 6 24 2 4 -3 4 2 0 12 -5 12
-9 14 -14 6 -6 -9 -9 -9 -12 1 -3 8 -7 5 -10 -9z"/>
<path d="M1595 4480 c2 -3 25 -5 52 -5 26 1 55 -3 63 -9 13 -8 13 -8 2 4 -12
14 -125 23 -117 10z"/>
<path d="M924 4452 c4 -3 14 -7 22 -8 9 -1 13 0 10 4 -4 3 -14 7 -22 8 -9 1
-13 0 -10 -4z"/>
<path d="M485 4230 c-7 -12 2 -30 16 -30 5 0 9 9 9 20 0 21 -15 27 -25 10z"/>
<path d="M288 4212 c4 -11 2 -13 -9 -7 -11 7 -12 6 -3 -6 6 -8 10 -23 9 -35
-1 -16 3 -20 17 -16 10 2 16 8 13 12 -3 5 -1 12 5 15 6 4 9 1 8 -6 -2 -6 3
-14 11 -17 10 -3 11 0 5 9 -6 12 -5 12 8 1 10 -8 14 -20 11 -30 -5 -11 -8 -12
-11 -3 -3 8 -8 7 -19 -6 -8 -10 -12 -13 -9 -6 4 6 1 15 -5 18 -15 10 -24 -2
-12 -17 6 -7 9 -20 8 -29 -2 -9 3 -16 11 -16 7 0 11 4 8 8 -2 4 0 10 5 13 5 4
13 2 16 -4 5 -8 11 -7 21 1 14 11 15 10 30 -39 5 -16 24 -6 24 11 0 7 -4 6
-10 -3 -8 -12 -10 -11 -10 8 0 12 1 24 3 26 1 2 -6 13 -16 24 -11 12 -16 26
-11 33 4 8 3 10 -4 5 -7 -4 -12 -4 -13 1 -2 22 -8 43 -17 59 -9 16 -10 15 -16
-4 -9 -27 -41 -30 -34 -4 3 11 0 19 -7 19 -8 0 -11 -7 -7 -15z m103 -99 c7
-10 9 -15 5 -11 -5 4 -15 3 -21 -2 -9 -7 -17 -5 -26 7 -8 9 -9 14 -2 10 6 -4
14 -3 18 3 8 13 10 13 26 -7z"/>
<path d="M522 4193 c0 -5 -2 -16 -7 -26 -4 -9 -5 -26 -2 -37 4 -15 0 -20 -13
-20 -27 0 -33 -28 -8 -41 11 -6 18 -7 15 -2 -3 4 1 17 9 28 9 12 14 14 14 5 0
-7 3 -10 6 -7 4 4 1 13 -5 21 -8 9 -8 16 -2 20 5 4 8 15 6 26 -2 13 2 20 11
20 8 0 14 5 14 10 0 6 -9 10 -20 10 -11 0 -19 -3 -18 -7z"/>
<path d="M1873 4133 c0 -9 4 -10 14 -2 7 6 13 12 13 14 0 1 -6 2 -13 2 -8 0
-14 -6 -14 -14z"/>
<path d="M563 4128 c-12 -20 -12 -35 1 -35 7 0 12 11 12 24 0 26 -2 28 -13 11z"/>
<path d="M2422 3525 c0 -16 2 -22 5 -12 2 9 2 23 0 30 -3 6 -5 -1 -5 -18z"/>
<path d="M2333 3395 c0 -8 4 -12 9 -9 5 3 6 10 3 15 -9 13 -12 11 -12 -6z"/>
<path d="M10525 2270 c-95 -17 -266 -116 -296 -171 -14 -26 -7 -24 32 12 58
53 119 87 203 116 69 24 97 27 191 27 126 0 173 -16 244 -79 48 -44 54 -35 11
16 -49 60 -108 82 -230 85 -58 2 -127 -1 -155 -6z"/>
<path d="M10989 2043 c-28 -71 -49 -100 -111 -156 -61 -55 -109 -86 -178 -115
-36 -15 -64 -25 -72 -26 -3 -1 -10 -5 -14 -9 -5 -4 10 -6 31 -4 22 2 30 2 18
0 -13 -2 -23 -8 -23 -13 0 -5 -7 -7 -15 -4 -8 4 -21 1 -28 -4 -8 -7 -18 -7
-27 -2 -10 7 -11 10 -2 10 6 0 12 5 12 10 0 6 -20 10 -45 10 -71 0 -196 21
-245 42 -72 31 -110 66 -142 132 l-30 61 7 -60 c12 -115 60 -176 182 -233 54
-25 67 -27 188 -27 142 0 230 20 328 73 99 53 171 164 183 280 7 66 0 79 -17
35z m-252 -289 c-3 -3 -12 -4 -19 -1 -8 3 -5 6 6 6 11 1 17 -2 13 -5z"/>
<path d="M665 1080 c-275 -15 -587 -67 -655 -110 -31 -20 -1 -17 105 10 225
57 400 75 730 75 287 -1 344 -7 372 -42 6 -8 17 -12 23 -8 18 11 -17 43 -59
55 -90 26 -269 33 -516 20z"/>
<path d="M1337 965 c-5 -27 -9 -56 -10 -64 -3 -19 -27 -26 -27 -8 0 8 -6 20
-14 26 -12 10 -34 6 -108 -18 -51 -16 -127 -39 -168 -51 -129 -37 -156 -49
-168 -75 -7 -14 -23 -30 -36 -35 -13 -5 -27 -18 -30 -28 -5 -16 -16 -19 -55
-19 -27 0 -54 -4 -61 -8 -8 -5 -11 -4 -7 2 3 5 0 10 -8 10 -8 0 -12 -4 -9 -9
3 -4 0 -8 -5 -8 -6 0 -11 4 -11 9 0 10 -58 27 -75 22 -5 -1 -7 0 -3 4 11 11
-14 31 -52 43 -19 6 -107 11 -195 11 -88 1 -187 6 -220 11 -33 5 -63 10 -67
10 -5 0 -8 -160 -8 -355 0 -195 2 -355 5 -355 4 0 19 7 35 15 59 30 357 123
445 139 130 22 300 36 451 36 135 0 380 -28 487 -55 86 -22 91 -21 83 17 -4
18 -7 45 -7 60 0 15 -4 30 -9 33 -6 4 -10 -1 -10 -10 0 -11 -7 -15 -22 -13
-27 4 -40 46 -28 89 5 17 6 60 3 96 -5 53 -10 67 -25 71 -17 4 -19 13 -17 76
5 119 0 218 -11 211 -5 -3 -10 -17 -10 -31 0 -13 -4 -24 -10 -24 -5 0 -11 49
-12 113 -3 97 -4 105 -11 62z m-634 -362 c-4 -25 -3 -34 5 -29 6 3 14 1 18 -5
4 -7 3 -9 -3 -6 -6 4 -16 0 -23 -8 -14 -17 -49 -20 -51 -5 -1 6 -1 17 -1 25 0
61 2 65 31 65 29 0 30 -1 24 -37z m44 22 c0 -6 -6 -12 -12 -12 -6 0 -12 6 -12
12 0 6 6 12 12 12 6 0 12 -6 12 -12z m-77 -184 c0 -22 -4 -43 -10 -46 -6 -4
-10 12 -10 39 0 25 5 46 10 46 6 0 10 -18 10 -39z"/>
<path d="M10876 759 c-86 -13 -239 -55 -288 -80 -24 -12 -78 -56 -120 -97 -67
-65 -78 -81 -84 -118 -6 -42 -9 -46 -75 -80 -38 -20 -89 -54 -112 -74 l-42
-38 -7 -93 c-4 -52 -10 -113 -14 -137 l-6 -42 506 0 506 0 0 335 c0 291 -2
335 -15 335 -8 0 -15 9 -15 20 0 11 7 20 15 20 10 0 15 10 15 30 l0 30 -102
-1 c-57 -1 -129 -5 -162 -10z m176 -146 c6 -27 -3 -54 -16 -50 -18 6 -20 67
-2 67 8 0 16 -8 18 -17z m-205 -50 c-3 -10 -5 -2 -5 17 0 19 2 27 5 18 2 -10
2 -26 0 -35z m121 41 c12 -4 22 -13 22 -21 0 -9 -6 -13 -15 -10 -8 4 -17 2
-20 -4 -9 -14 -25 -1 -25 22 0 21 3 22 38 13z m-78 -40 c0 -8 -4 -12 -10 -9
-5 3 -10 13 -10 21 0 8 5 12 10 9 6 -3 10 -13 10 -21z m-110 -184 c0 -14 -20
-22 -37 -16 -12 5 -13 9 -3 21 11 14 40 10 40 -5z m332 -310 c-3 -38 -7 -45
-19 -37 -5 3 -7 22 -5 42 5 46 28 41 24 -5z m-75 8 c-3 -8 -6 -5 -6 6 -1 11 2
17 5 13 3 -3 4 -12 1 -19z m-17 9 c0 -2 -10 -12 -22 -23 l-23 -19 19 23 c18
21 26 27 26 19z"/>
<path d="M2210 379 c-41 -11 -93 -22 -115 -25 -88 -13 -206 -107 -255 -205
-26 -51 -38 -61 -59 -50 -9 5 -29 11 -46 15 l-30 6 30 -16 c50 -28 97 -67 105
-88 8 -19 9 -18 9 6 1 15 9 33 19 40 9 7 25 25 35 41 17 26 90 64 114 59 18
-4 26 17 13 33 -10 12 -8 13 9 10 16 -3 21 1 19 12 -2 10 6 17 20 19 16 3 22
0 19 -8 -2 -7 -10 -12 -16 -11 -13 3 -15 -13 -2 -22 5 -3 16 2 24 10 9 8 20
15 26 15 5 0 14 6 18 13 9 13 37 16 153 16 112 0 283 -22 306 -40 6 -5 43 -25
82 -44 65 -33 172 -129 172 -156 0 -5 14 -9 30 -9 17 0 30 3 30 7 0 16 -81
142 -120 186 -62 70 -150 134 -232 169 -98 41 -244 48 -358 17z m-93 -141 c-3
-7 -5 -2 -5 12 0 14 2 19 5 13 2 -7 2 -19 0 -25z m20 10 c-3 -8 -6 -5 -6 6 -1
11 2 17 5 13 3 -3 4 -12 1 -19z"/>
<path d="M2760 326 c0 -2 8 -10 18 -17 15 -13 16 -12 3 4 -13 16 -21 21 -21
13z"/>
<path d="M9640 262 c0 -7 -4 -11 -9 -8 -5 3 -11 -1 -15 -9 -3 -8 0 -15 7 -15
8 0 6 -4 -3 -10 -10 -6 -11 -10 -2 -10 21 0 27 2 25 9 -3 11 36 11 42 0 4 -5
-2 -6 -12 -2 -16 6 -17 5 -3 -12 9 -11 10 -16 3 -11 -8 4 -13 2 -13 -6 0 -8
-3 -9 -8 -3 -4 6 -14 11 -22 13 -11 3 -12 0 -4 -8 9 -9 25 -14 72 -24 8 -1 18
-9 23 -17 7 -12 9 -12 9 1 0 13 1 13 10 0 5 -9 5 -19 -1 -27 -6 -7 -8 -17 -5
-22 14 -23 -62 -36 -94 -16 -8 5 -11 4 -6 -3 3 -6 2 -13 -3 -16 -10 -6 -100
-15 -217 -20 -39 -2 -86 -9 -106 -15 -20 -6 -40 -11 -44 -10 -19 3 -34 -2 -34
-11 0 -6 43 -10 115 -9 63 1 115 5 115 8 0 3 20 7 45 9 25 1 45 -2 45 -8 0 -5
5 -10 10 -10 6 0 10 7 10 15 0 22 38 33 79 24 19 -4 37 -7 40 -7 18 3 112 -16
117 -23 3 -5 58 -9 124 -9 l118 0 11 63 c19 108 17 116 -32 137 -59 26 -157
48 -242 54 -38 3 -78 8 -87 11 -11 4 -18 3 -18 -4 0 -13 -22 -10 -32 4 -5 6
-8 5 -8 -3z"/>
<path d="M675 194 c-193 -28 -352 -63 -468 -103 -84 -29 -177 -72 -177 -82 0
-16 55 -9 98 11 108 52 389 127 574 151 146 20 419 3 634 -40 96 -19 314 -104
314 -122 0 -5 12 -9 26 -9 49 0 22 33 -62 75 -86 44 -209 77 -369 101 -96 14
-508 27 -570 18z"/>
<path d="M2046 188 c3 -4 9 -8 15 -8 5 0 9 4 9 8 0 5 -7 9 -15 9 -8 0 -12 -4
-9 -9z"/>
<path d="M9570 195 c0 -7 30 -13 34 -7 3 4 -4 9 -15 9 -10 1 -19 0 -19 -2z"/>
<path d="M9490 180 c-13 -8 -13 -10 2 -10 9 0 20 5 23 10 8 13 -5 13 -25 0z"/>
<path d="M9328 163 c-21 -12 -19 -13 27 -8 28 4 54 10 58 14 13 13 -60 8 -85
-6z"/>
<path d="M9430 170 c0 -5 7 -7 15 -4 8 4 15 8 15 10 0 2 -7 4 -15 4 -8 0 -15
-4 -15 -10z"/>
<path d="M9163 153 c9 -2 25 -2 35 0 9 3 1 5 -18 5 -19 0 -27 -2 -17 -5z"/>
<path d="M9675 143 c1 -10 8 -17 14 -15 16 3 13 -9 -6 -23 -13 -9 -13 -14 -3
-20 9 -5 11 -4 6 4 -5 8 0 10 18 7 16 -3 24 -1 20 5 -3 5 0 17 8 26 9 12 10
15 0 9 -7 -4 -15 -1 -18 9 -6 14 -8 14 -20 -2 -13 -17 -14 -17 -8 0 3 9 2 17
-4 17 -6 0 -9 -8 -7 -17z"/>
<path d="M8970 131 c0 -5 9 -7 20 -4 11 3 20 7 20 9 0 2 -9 4 -20 4 -11 0 -20
-4 -20 -9z"/>
<path d="M9645 111 c-3 -5 -2 -12 3 -15 5 -3 9 1 9 9 0 17 -3 19 -12 6z"/>
<path d="M9180 10 c-24 -8 -23 -8 8 -9 20 -1 31 3 27 9 -3 6 -7 10 -8 9 -1 -1
-13 -5 -27 -9z"/>
</g>
</svg>
